<svg width="38" height="21" viewBox="0 0 38 21" fill="none" xmlns="http://www.w3.org/2000/svg">
    <path
        d="M11.655 11.1955C10.6277 11.1955 9.62339 10.8908 8.76918 10.32C7.91496 9.74928 7.24918 8.93802 6.85603 7.98887C6.46287 7.03971 6.36001 5.99529 6.56043 4.98767C6.76086 3.98006 7.25558 3.0545 7.98203 2.32805C8.70848 1.6016 9.63404 1.10688 10.6417 0.906452C11.6493 0.706025 12.6937 0.808891 13.6428 1.20204C14.592 1.5952 15.4033 2.26098 15.974 3.11519C16.5448 3.96941 16.8494 4.9737 16.8494 6.00105C16.8494 7.3787 16.3022 8.69991 15.328 9.67406C14.3539 10.6482 13.0327 11.1955 11.655 11.1955ZM11.655 2.88441C11.0386 2.88441 10.436 3.06719 9.92352 3.40966C9.41099 3.75212 9.01152 4.23887 8.77563 4.80836C8.53974 5.37786 8.47802 6.00451 8.59827 6.60908C8.71853 7.21365 9.01536 7.76898 9.45123 8.20485C9.8871 8.64072 10.4424 8.93756 11.047 9.05781C11.6516 9.17807 12.2782 9.11635 12.8477 8.88046C13.4172 8.64457 13.904 8.2451 14.2464 7.73257C14.5889 7.22004 14.7717 6.61747 14.7717 6.00105C14.7717 5.17447 14.4433 4.38174 13.8588 3.79725C13.2744 3.21277 12.4816 2.88441 11.655 2.88441ZM21.3513 20.8917C21.0769 20.8881 20.8147 20.7775 20.6206 20.5834C20.4266 20.3894 20.316 20.1272 20.3124 19.8528C20.3124 17.1517 18.8441 15.351 11.655 15.351C4.46597 15.351 2.99769 17.1517 2.99769 19.8528C2.99769 20.1283 2.88823 20.3926 2.6934 20.5874C2.49858 20.7822 2.23433 20.8917 1.9588 20.8917C1.68328 20.8917 1.41903 20.7822 1.2242 20.5874C1.02938 20.3926 0.919922 20.1283 0.919922 19.8528C0.919922 13.2732 8.44143 13.2732 11.655 13.2732C14.8686 13.2732 22.3901 13.2732 22.3901 19.8528C22.3866 20.1272 22.276 20.3894 22.0819 20.5834C21.8878 20.7775 21.6257 20.8881 21.3513 20.8917Z"
        fill="white" />
    <path
        d="M27.0144 11.1955C25.9871 11.1955 24.9828 10.8908 24.1286 10.32C23.2743 9.74928 22.6086 8.93802 22.2154 7.98887C21.8222 7.03971 21.7194 5.99529 21.9198 4.98767C22.1202 3.98006 22.615 3.0545 23.3414 2.32805C24.0679 1.6016 24.9934 1.10688 26.001 0.906452C27.0086 0.706025 28.0531 0.808891 29.0022 1.20204C29.9514 1.5952 30.7626 2.26098 31.3334 3.11519C31.9042 3.96941 32.2088 4.9737 32.2088 6.00105C32.2088 7.3787 31.6616 8.69991 30.6874 9.67406C29.7133 10.6482 28.3921 11.1955 27.0144 11.1955ZM27.0144 2.88441C26.398 2.88441 25.7954 3.06719 25.2829 3.40966C24.7704 3.75212 24.3709 4.23887 24.135 4.80836C23.8991 5.37786 23.8374 6.00451 23.9576 6.60908C24.0779 7.21365 24.3747 7.76898 24.8106 8.20485C25.2465 8.64072 25.8018 8.93756 26.4064 9.05781C27.011 9.17807 27.6376 9.11635 28.2071 8.88046C28.7766 8.64457 29.2633 8.2451 29.6058 7.73257C29.9483 7.22004 30.1311 6.61747 30.1311 6.00105C30.1311 5.17447 29.8027 4.38174 29.2182 3.79725C28.6337 3.21277 27.841 2.88441 27.0144 2.88441ZM36.7106 20.8917C36.4362 20.8881 36.1741 20.7775 35.98 20.5834C35.786 20.3894 35.6753 20.1272 35.6718 19.8528C35.6718 17.1517 34.2035 15.351 27.0144 15.351C19.8253 15.351 18.3571 17.1517 18.3571 19.8528C18.3571 20.1283 18.2476 20.3926 18.0528 20.5874C17.858 20.7822 17.5937 20.8917 17.3182 20.8917C17.0427 20.8917 16.7784 20.7822 16.5836 20.5874C16.3888 20.3926 16.2793 20.1283 16.2793 19.8528C16.2793 13.2732 23.8008 13.2732 27.0144 13.2732C30.228 13.2732 37.7495 13.2732 37.7495 19.8528C37.7459 20.1272 37.6353 20.3894 37.4413 20.5834C37.2472 20.7775 36.9851 20.8881 36.7106 20.8917Z"
        fill="white" />
</svg>