<svg width="20" height="22" viewBox="0 0 20 22" fill="none" xmlns="http://www.w3.org/2000/svg">
<path d="M8.56863 0.548871C8.96194 0.195489 9.47202 0 10.0008 0C10.5295 0 11.0396 0.195489 11.4329 0.548871L19.2901 7.60892C19.5135 7.80981 19.6922 8.05544 19.8145 8.32985C19.9368 8.60427 20.0001 8.90134 20.0001 9.20178V19.2804C20.0001 19.8487 19.7744 20.3938 19.3725 20.7957C18.9706 21.1975 18.4256 21.4233 17.8573 21.4233H14.2858C13.7175 21.4233 13.1724 21.1975 12.7706 20.7957C12.3687 20.3938 12.1429 19.8487 12.1429 19.2804V14.2804C12.1429 14.0909 12.0677 13.9093 11.9337 13.7753C11.7998 13.6414 11.6181 13.5661 11.4286 13.5661H8.57148C8.38204 13.5661 8.20036 13.6414 8.0664 13.7753C7.93245 13.9093 7.85719 14.0909 7.85719 14.2804V19.2804C7.85719 19.8487 7.63143 20.3938 7.22956 20.7957C6.82769 21.1975 6.28265 21.4233 5.71432 21.4233H2.14287C1.57455 21.4233 1.0295 21.1975 0.627632 20.7957C0.225766 20.3938 0 19.8487 0 19.2804V9.20178C0 8.59464 0.257144 8.01606 0.711433 7.60892L8.56863 0.548871ZM10.4772 1.61173C10.3461 1.49407 10.1762 1.42899 10.0001 1.42899C9.82392 1.42899 9.65399 1.49407 9.52292 1.61173L1.66572 8.67178C1.59129 8.7386 1.53172 8.8203 1.49087 8.9116C1.45002 9.0029 1.4288 9.10176 1.42858 9.20178V19.2804C1.42858 19.4699 1.50384 19.6515 1.63779 19.7855C1.77175 19.9195 1.95343 19.9947 2.14287 19.9947H5.71432C5.90376 19.9947 6.08545 19.9195 6.2194 19.7855C6.35336 19.6515 6.42861 19.4699 6.42861 19.2804V14.2804C6.42861 13.7121 6.65438 13.167 7.05624 12.7651C7.45811 12.3633 8.00316 12.1375 8.57148 12.1375H11.4286C11.997 12.1375 12.542 12.3633 12.9439 12.7651C13.3457 13.167 13.5715 13.7121 13.5715 14.2804V19.2804C13.5715 19.4699 13.6468 19.6515 13.7807 19.7855C13.9147 19.9195 14.0964 19.9947 14.2858 19.9947H17.8573C18.0467 19.9947 18.2284 19.9195 18.3623 19.7855C18.4963 19.6515 18.5715 19.4699 18.5715 19.2804V9.20178C18.5713 9.10176 18.5501 9.0029 18.5093 8.9116C18.4684 8.8203 18.4088 8.7386 18.3344 8.67178L10.4772 1.61173Z" fill="#34F4A4"/>
</svg>
