<svg width="22" height="21" viewBox="0 0 22 21" fill="none" xmlns="http://www.w3.org/2000/svg">
<path d="M11 10.6452C9.9473 10.6452 8.91823 10.333 8.04294 9.74815C7.16764 9.1633 6.48543 8.33202 6.08258 7.35945C5.67973 6.38687 5.57432 5.31668 5.77969 4.2842C5.98507 3.25172 6.49199 2.30333 7.23637 1.55895C7.98075 0.814574 8.92914 0.307647 9.96162 0.102274C10.9941 -0.103099 12.0643 0.0023062 13.0369 0.40516C14.0094 0.808014 14.8407 1.49022 15.4256 2.36552C16.0104 3.24081 16.3226 4.26988 16.3226 5.32259C16.3226 6.73422 15.7618 8.08804 14.7636 9.08622C13.7655 10.0844 12.4116 10.6452 11 10.6452ZM11 2.12904C10.3684 2.12904 9.75094 2.31633 9.22576 2.66725C8.70059 3.01816 8.29126 3.51692 8.04955 4.10047C7.80784 4.68401 7.74459 5.32613 7.86782 5.94562C7.99104 6.5651 8.2952 7.13414 8.74183 7.58077C9.18845 8.02739 9.75749 8.33155 10.377 8.45477C10.9965 8.578 11.6386 8.51475 12.2221 8.27304C12.8057 8.03133 13.3044 7.622 13.6553 7.09683C14.0063 6.57165 14.1936 5.95421 14.1936 5.32259C14.1936 4.4756 13.8571 3.66331 13.2582 3.0644C12.6593 2.4655 11.847 2.12904 11 2.12904ZM20.9355 20.5807C20.6543 20.577 20.3857 20.4636 20.1868 20.2648C19.988 20.066 19.8747 19.7973 19.871 19.5161C19.871 16.7484 18.3665 14.9032 11 14.9032C3.63355 14.9032 2.12903 16.7484 2.12903 19.5161C2.12903 19.7985 2.01688 20.0692 1.81724 20.2689C1.61761 20.4685 1.34684 20.5807 1.06452 20.5807C0.782189 20.5807 0.511425 20.4685 0.31179 20.2689C0.112154 20.0692 0 19.7985 0 19.5161C0 12.7742 7.7071 12.7742 11 12.7742C14.2929 12.7742 22 12.7742 22 19.5161C21.9963 19.7973 21.883 20.066 21.6842 20.2648C21.4853 20.4636 21.2167 20.577 20.9355 20.5807Z" fill="white"/>
</svg>
