<svg width="107" height="103" viewBox="0 0 107 103" fill="none" xmlns="http://www.w3.org/2000/svg">
<path fill-rule="evenodd" clip-rule="evenodd" d="M74.2253 52.9026C75.9059 34.4012 51.1957 18.6856 30.9699 32.2503C29.385 33.3134 27.8274 34.5561 26.3124 35.9916C14.557 49.6167 14.0074 76.1836 37.4921 91.3077C68.5117 105.179 95.0664 89.6982 107 56.9569C102.616 81.6944 89.2608 99.5471 60.7424 103C25.3484 103.076 8.81101 79.7798 11.3254 53.8121C14.4092 28.6104 42.4658 11.4188 64.5368 26.9041C73.7285 33.3531 76.1534 41.9051 74.2253 52.9026ZM40.8148 72.9509C54.6735 84.9205 81.3726 72.1709 81.2415 49.9185C81.134 31.7551 72.5354 20.7321 52.6533 17.2601C26.6203 15.6379 13.1089 27.871 6.68509 50.6465C4.11309 62.5352 5.98096 83.5988 23.3391 99.1832C1.85065 83.5236 -5.57213 63.3834 4.31301 36.3382C14.8749 13.2155 38.3687 7.60712 58.5725 11.6489C78.0866 16.6054 90.3275 31.1965 86.4773 54.8549C78.6597 82.8256 49.0197 81.9642 40.8148 72.9509ZM40.7848 32.9546C32.1302 41.3132 24.7363 50.3078 27.999 64.6787C32.2805 78.321 47.856 88.0063 65.1158 83.2489C76.9394 79.9901 87.4003 69.1737 91.1211 57.6786C102.99 21.0105 60.0886 -3.63778 25.7621 5.2616C77.0528 -16.3082 117.009 32.9547 92.1743 71.2437C77.0486 92.4379 58.4879 96.6647 36.6911 84.9046C23.0618 75.1593 19.2681 60.923 24.8545 47.3154C29.0592 39.5662 34.4682 35.044 40.7848 32.9546ZM52.2667 36.0696C62.139 36.0696 70.1421 44.0356 70.1421 53.8621C70.1421 63.6886 62.139 71.6546 52.2667 71.6546C42.3944 71.6546 34.3912 63.6886 34.3912 53.8621C34.3912 44.0356 42.3944 36.0696 52.2667 36.0696Z" fill="#34F4A4"/>
</svg>
