<svg width="44" height="44" viewBox="0 0 44 44" fill="none" xmlns="http://www.w3.org/2000/svg">
<path d="M26.8312 12.0438C25.9195 11.1323 24.7685 10.4972 23.5112 10.212C22.2539 9.92684 20.9416 10.0032 19.7258 10.4321C18.51 10.8611 17.4404 11.6253 16.6405 12.6364C15.8407 13.6475 15.3431 14.8643 15.2054 16.1461C15.1663 16.6298 15.1877 17.1164 15.2692 17.5948L16.4217 25.6604C16.717 27.7252 16.3753 29.831 15.4423 31.6965L15.1667 32.25L18.6722 31.0815C19.7234 30.7314 20.8599 30.7314 21.9112 31.0815L23.4031 31.5781C24.0417 31.791 24.7159 31.876 25.3874 31.8284C26.0588 31.7807 26.7143 31.6012 27.3163 31.3002L28.8333 30.5417M13.4583 22H22M42.5 22C42.5 24.6921 41.9698 27.3578 40.9395 29.845C39.9093 32.3322 38.3993 34.5921 36.4957 36.4957C34.5921 38.3993 32.3322 39.9093 29.845 40.9395C27.3578 41.9698 24.6921 42.5 22 42.5C19.3079 42.5 16.6422 41.9698 14.155 40.9395C11.6678 39.9093 9.40791 38.3993 7.50431 36.4957C5.60071 34.5921 4.09069 32.3322 3.06047 29.845C2.03025 27.3578 1.5 24.6921 1.5 22C1.5 16.5631 3.65981 11.3488 7.50431 7.50431C11.3488 3.65982 16.5631 1.5 22 1.5C27.4369 1.5 32.6512 3.65982 36.4957 7.50431C40.3402 11.3488 42.5 16.5631 42.5 22Z" stroke="#34F4A4" stroke-width="3" stroke-linecap="round" stroke-linejoin="round"/>
</svg>
