<svg width="45" height="42" viewBox="0 0 45 42" fill="none" xmlns="http://www.w3.org/2000/svg">
<path d="M22.5 21.7241C20.3467 21.7241 18.2418 21.0871 16.4515 19.8936C14.6611 18.7 13.2657 17.0036 12.4416 15.0188C11.6176 13.034 11.402 10.85 11.8221 8.74299C12.2422 6.63595 13.2791 4.70052 14.8017 3.18143C16.3242 1.66234 18.2641 0.627832 20.376 0.208716C22.4879 -0.210399 24.677 0.00470638 26.6663 0.826831C28.6557 1.64895 30.356 3.04117 31.5523 4.82743C32.7486 6.61369 33.3871 8.71376 33.3871 10.8621C33.3871 13.7429 32.2401 16.5057 30.1983 18.5427C28.1566 20.5797 25.3874 21.7241 22.5 21.7241ZM22.5 4.34483C21.208 4.34483 19.9451 4.72706 18.8709 5.44318C17.7966 6.15931 16.9594 7.17716 16.465 8.36803C15.9706 9.5589 15.8412 10.8693 16.0933 12.1335C16.3453 13.3977 16.9674 14.559 17.881 15.4705C18.7945 16.3819 19.9585 17.0026 21.2256 17.2541C22.4928 17.5056 23.8062 17.3765 24.9998 16.8832C26.1934 16.3899 27.2136 15.5546 27.9314 14.4829C28.6491 13.4111 29.0323 12.1511 29.0323 10.8621C29.0323 9.13359 28.344 7.47591 27.119 6.25369C25.894 5.03147 24.2325 4.34483 22.5 4.34483ZM42.8226 42C42.2474 41.9925 41.698 41.7612 41.2912 41.3554C40.8845 40.9496 40.6527 40.4014 40.6452 39.8276C40.6452 34.1793 37.5677 30.4138 22.5 30.4138C7.43226 30.4138 4.35484 34.1793 4.35484 39.8276C4.35484 40.4037 4.12543 40.9563 3.71709 41.3637C3.30874 41.7711 2.75491 42 2.17742 42C1.59993 42 1.0461 41.7711 0.637751 41.3637C0.229406 40.9563 0 40.4037 0 39.8276C0 26.069 15.7645 26.069 22.5 26.069C29.2355 26.069 45 26.069 45 39.8276C44.9925 40.4014 44.7607 40.9496 44.3539 41.3554C43.9472 41.7612 43.3977 41.9925 42.8226 42Z" fill="#34F4A4"/>
</svg>
