<svg width="18" height="18" viewBox="0 0 18 18" fill="none" xmlns="http://www.w3.org/2000/svg">
<path fill-rule="evenodd" clip-rule="evenodd" d="M10.5 0L11.3963 2.68771C11.5222 2.73555 11.6464 2.78706 11.7686 2.84211L14.3033 1.57538L16.4246 3.6967L15.1579 6.23137C15.2129 6.3536 15.2644 6.47776 15.3123 6.60373L18 7.5V10.5L15.312 11.397C15.2641 11.523 15.2126 11.6472 15.1576 11.7694L16.4246 14.3033L14.3033 16.4246L11.7694 15.1576C11.6472 15.2126 11.523 15.2641 11.397 15.312L10.5 18H7.5L6.60373 15.3123C6.47776 15.2644 6.3536 15.2129 6.23137 15.1579L3.6967 16.4246L1.57538 14.3033L2.84211 11.7686C2.78706 11.6464 2.73555 11.5222 2.68771 11.3963L0 10.5V7.5L2.68742 6.60448C2.73535 6.47825 2.78695 6.35384 2.84211 6.23137L1.57538 3.6967L3.6967 1.57538L6.23137 2.84211C6.35384 2.78695 6.47825 2.73535 6.60448 2.68742L7.5 0H10.5ZM9.4185 1.5H8.58075L7.80249 3.83703L7.13693 4.08974L6.99117 4.14761L6.84726 4.20983L6.19787 4.50226L3.993 3.39975L3.39975 3.993L4.50226 6.19787L4.20983 6.84726L4.14761 6.99117L4.08974 7.13693L3.83703 7.80249L1.5 8.58075V9.4185L3.83729 10.1984L4.08996 10.8637L4.14773 11.0091L4.20983 11.1527L4.50226 11.8021L3.39975 14.0062L3.993 14.5995L6.19787 13.4977L6.84726 13.7902L6.99088 13.8523L7.13635 13.91L7.80158 14.1627L8.58075 16.5H9.4185L10.1993 14.1625L10.8642 13.9098L11.0097 13.852L11.1533 13.7899L11.803 13.4973L14.007 14.5988L14.5988 14.007L13.4973 11.803L13.7899 11.1533L13.852 11.0097L13.9098 10.8642L14.1625 10.1993L16.5 9.4185V8.58075L14.1627 7.80158L13.91 7.13635L13.8523 6.99088L13.7902 6.84726L13.4977 6.19787L14.5995 3.993L14.0062 3.39975L11.8021 4.50226L11.1527 4.20983L11.0091 4.14773L10.8637 4.08996L10.1984 3.83729L9.4185 1.5ZM9 6C10.6569 6 12 7.34315 12 9C12 10.6569 10.6569 12 9 12C7.34315 12 6 10.6569 6 9C6 7.34315 7.34315 6 9 6ZM9 7.5C8.17157 7.5 7.5 8.17157 7.5 9C7.5 9.82843 8.17157 10.5 9 10.5C9.82843 10.5 10.5 9.82843 10.5 9C10.5 8.17157 9.82843 7.5 9 7.5Z" fill="white"/>
</svg>
