<svg width="74" height="79" viewBox="0 0 74 79" fill="none" xmlns="http://www.w3.org/2000/svg">
<path d="M34.2091 78.9989C36.8438 78.9416 39.3722 78.0069 41.347 76.3601C43.3218 74.7132 44.6158 72.4604 45 70H23C23.3951 72.5272 24.7496 74.833 26.8115 76.4883C28.8734 78.1437 31.5023 79.0358 34.2091 78.9989Z" fill="#34F4A4"/>
<path d="M68.7056 60.2888L67.9217 59.6222C65.6978 57.7124 63.7513 55.5223 62.1347 53.1111C60.3692 49.7834 59.311 46.1493 59.0222 42.4222V31.4444C59.0129 30.1109 58.8895 28.7805 58.6533 27.4666C54.748 26.6929 51.24 24.6422 48.7233 21.6617C46.2066 18.6812 44.8358 14.9539 44.8431 11.1111V9.71106C42.4359 8.56925 39.8496 7.81841 37.1886 7.48883V4.68883C37.1886 3.90203 36.8643 3.14744 36.2871 2.59108C35.7099 2.03473 34.927 1.72217 34.1107 1.72217C33.2944 1.72217 32.5115 2.03473 31.9343 2.59108C31.3571 3.14744 31.0328 3.90203 31.0328 4.68883V7.59995C25.0746 8.41006 19.6216 11.2705 15.6806 15.6531C11.7396 20.0358 9.57665 25.6447 9.59111 31.4444V42.4222C9.30235 46.1493 8.24415 49.7834 6.47861 53.1111C4.88981 55.5163 2.97462 57.706 0.783889 59.6222L0 60.2888V66.5555H68.7056V60.2888Z" fill="#34F4A4"/>
<path d="M62.1352 22.2222C68.5018 22.2222 73.663 17.2476 73.663 11.1111C73.663 4.97461 68.5018 0 62.1352 0C55.7686 0 50.6074 4.97461 50.6074 11.1111C50.6074 17.2476 55.7686 22.2222 62.1352 22.2222Z" fill="#F44034"/>
</svg>
