<svg width="24" height="24" viewBox="0 0 24 24" fill="none" xmlns="http://www.w3.org/2000/svg">
<g clip-path="url(#clip0_1_4304)">
<path d="M16.7934 13.6C16.9849 13.0883 17.082 12.5462 17.0801 12C17.0801 10.787 16.5983 9.6238 15.7406 8.76613C14.8829 7.90847 13.7197 7.42664 12.5068 7.42664C11.9672 7.42727 11.4321 7.52435 10.9268 7.7133L12.0001 8.81997C12.1633 8.79387 12.3282 8.78049 12.4934 8.77997C13.351 8.77818 14.1745 9.1158 14.7841 9.7191C15.3936 10.3224 15.7397 11.1424 15.7468 12C15.7462 12.1652 15.7328 12.3301 15.7068 12.4933L16.7934 13.6Z" fill="#34F4A4"/>
<path d="M22.8603 11.6867C20.6136 7.53335 16.6736 5.02002 12.3136 5.02002C11.1265 5.02281 9.94742 5.21408 8.82031 5.58669L9.89365 6.66669C10.6842 6.46237 11.4971 6.35712 12.3136 6.35335C16.067 6.35335 19.4803 8.44669 21.5136 11.9734C20.7678 13.2818 19.7789 14.4357 18.6003 15.3734L19.547 16.32C20.911 15.2196 22.0439 13.8601 22.8803 12.32L23.0536 12L22.8603 11.6867Z" fill="#34F4A4"/>
<path d="M3.24691 3.85332L6.22025 6.82665C4.34086 8.03673 2.80485 9.7105 1.76025 11.6867L1.58691 12L1.76025 12.32C4.00691 16.4733 7.94691 18.9867 12.3069 18.9867C14.0087 18.9863 15.6884 18.6011 17.2202 17.86L20.5536 21.1933L21.7202 20.1933L4.38691 2.85999L3.24691 3.85332ZM9.74691 10.3533L14.1802 14.7867C13.6793 15.0967 13.1027 15.2628 12.5136 15.2667C12.0855 15.2667 11.6617 15.182 11.2665 15.0176C10.8713 14.8532 10.5125 14.6123 10.2107 14.3087C9.909 14.0051 9.67027 13.6448 9.50829 13.2486C9.34631 12.8524 9.26428 12.428 9.26691 12C9.27443 11.4177 9.44036 10.8484 9.74691 10.3533ZM8.78025 9.38665C8.15654 10.2663 7.8642 11.3382 7.95499 12.4126C8.04578 13.4871 8.51385 14.4948 9.27632 15.2572C10.0388 16.0197 11.0465 16.4878 12.1209 16.5786C13.1954 16.6694 14.2673 16.377 15.1469 15.7533L16.2136 16.82C14.9788 17.3478 13.6498 17.62 12.3069 17.62C8.55358 17.62 5.14025 15.5267 3.10691 12C4.08272 10.2721 5.48806 8.82545 7.18691 7.79999L8.78025 9.38665Z" fill="#34F4A4"/>
</g>
<defs>
<clipPath id="clip0_1_4304">
<rect width="24" height="24" fill="white"/>
</clipPath>
</defs>
</svg>
