<svg width="41" height="41" viewBox="0 0 41 41" fill="none" xmlns="http://www.w3.org/2000/svg">
<path d="M16.713 5.22219e-08C13.8147 -0.000229112 10.9667 0.75377 8.45169 2.18718C5.93664 3.62059 3.84193 5.68358 2.37541 8.17146C0.908894 10.6593 0.121541 13.4856 0.0914833 16.3698C0.0614251 19.254 0.789706 22.0959 2.20406 24.6136L0.168622 29.9119C-0.000582412 30.3523 -0.0435037 30.8309 0.0446476 31.2942C0.132799 31.7575 0.348556 32.1873 0.667848 32.5356C0.98714 32.884 1.39741 33.1373 1.85289 33.2671C2.30837 33.397 2.79114 33.3983 3.24735 33.271L9.60682 31.4973C11.8595 32.5566 14.3226 33.0983 16.814 33.0824C19.3054 33.0665 21.7614 32.4934 24.0002 31.4055C26.239 30.3175 28.2035 28.7426 29.7482 26.7972C31.2929 24.8518 32.3784 22.5857 32.9245 20.1664C33.4705 17.7472 33.463 15.2367 32.9026 12.8207C32.3422 10.4048 31.2432 8.14506 29.6869 6.20879C28.1306 4.27253 26.1568 2.70923 23.9116 1.63452C21.6663 0.559817 19.207 0.00120399 16.7155 5.22219e-08H16.713ZM2.64899 16.5414C2.65013 13.4912 3.65241 10.5249 5.50332 8.0938C7.35423 5.66269 9.95246 3.89984 12.9027 3.07348C15.8529 2.24712 18.9936 2.40248 21.847 3.51593C24.7003 4.62938 27.1101 6.63996 28.7096 9.24176C30.3092 11.8436 31.0109 14.8941 30.7081 17.9294C30.4053 20.9646 29.1145 23.8183 27.0322 26.0563C24.9498 28.2943 22.1898 29.7941 19.1722 30.3275C16.1546 30.8608 13.0445 30.3986 10.3151 29.011L9.8702 28.782L2.55694 30.8204L5.03475 24.3667L4.70745 23.8323C3.35768 21.6379 2.64517 19.1143 2.64899 16.5414ZM24.2896 40.7172C21.897 40.7198 19.5322 40.2072 17.3575 39.2144C15.1827 38.2217 13.2496 36.7723 11.6908 34.9659C13.1594 35.3618 14.6703 35.5814 16.1913 35.6199C18.5593 37.2844 21.388 38.1763 24.287 38.1724C26.5935 38.1724 28.7671 37.6202 30.6849 36.6455L31.1298 36.4165L38.4431 38.4549L35.9652 32.0012L36.2926 31.4668C37.5967 29.3444 38.351 26.8505 38.351 24.1758C38.355 21.3499 37.4953 18.5897 35.886 16.2614C35.8649 14.7475 35.6632 13.2414 35.2851 11.7749C37.0543 13.3253 38.471 15.2334 39.4406 17.3718C40.4102 19.5102 40.9105 21.8298 40.9081 24.1758C40.9081 27.1049 40.141 29.8584 38.7985 32.248L40.8314 37.5464C41.0006 37.9868 41.0435 38.4654 40.9554 38.9286C40.8672 39.3919 40.6514 39.8217 40.3321 40.1701C40.0129 40.5185 39.6026 40.7717 39.1471 40.9016C38.6916 41.0314 38.2089 41.0328 37.7526 40.9055L31.3932 39.1318C29.2376 40.1497 26.8262 40.7172 24.2845 40.7172H24.2896Z" fill="#34F4A4"/>
</svg>
