<svg width="18" height="18" viewBox="0 0 18 18" fill="none" xmlns="http://www.w3.org/2000/svg">
<path fill-rule="evenodd" clip-rule="evenodd" d="M9 0C13.9706 0 18 4.02944 18 9C18 13.9706 13.9706 18 9 18C4.02944 18 0 13.9706 0 9C0 4.02944 4.02944 0 9 0ZM9 12C9.62132 12 10.125 12.5037 10.125 13.125C10.125 13.7463 9.62132 14.25 9 14.25C8.37868 14.25 7.875 13.7463 7.875 13.125C7.875 12.5037 8.37868 12 9 12ZM8.99938 3.75C10.6539 3.75 12 4.9925 12 6.5198C12 7.2595 11.6878 7.95504 11.1212 8.47848L10.6762 8.88445L10.4556 9.09339C10.0982 9.44293 9.80408 9.7988 9.75355 10.1568L9.74588 10.2642V10.875H8.25287V10.2642C8.25287 9.32441 8.88337 8.60408 9.50934 8.01294L10.0649 7.50359C10.3498 7.24057 10.5067 6.89123 10.5067 6.5198C10.5067 5.75285 9.83069 5.12873 8.99938 5.12873C8.20854 5.12873 7.55802 5.69482 7.49786 6.41126L7.49332 6.5198H6C6 4.9925 7.34545 3.75 8.99938 3.75Z" fill="white"/>
</svg>
