<svg width="21" height="22" viewBox="0 0 21 22" fill="none" xmlns="http://www.w3.org/2000/svg">
<path d="M16.3298 9.96344C16.9328 15.5419 19.3043 17.2285 19.3043 17.2285H0.622818C0.622818 17.2285 3.7364 15.0147 3.7364 7.265C3.7364 5.50375 4.39233 3.81411 5.55992 2.56868C6.72855 1.32325 8.31337 0.622691 9.96356 0.622691C10.3133 0.622691 10.661 0.653827 11.0014 0.716098M11.7591 20.342C11.5768 20.6569 11.315 20.9182 10.9998 21.0999C10.6847 21.2816 10.3273 21.3773 9.96356 21.3773C9.5998 21.3773 9.24243 21.2816 8.92729 21.0999C8.61215 20.9182 8.35032 20.6569 8.16807 20.342M17.2286 6.84986C18.0544 6.84986 18.8463 6.52182 19.4302 5.93791C20.0141 5.354 20.3422 4.56205 20.3422 3.73627C20.3422 2.9105 20.0141 2.11855 19.4302 1.53464C18.8463 0.950728 18.0544 0.622691 17.2286 0.622691C16.4028 0.622691 15.6109 0.950728 15.027 1.53464C14.443 2.11855 14.115 2.9105 14.115 3.73627C14.115 4.56205 14.443 5.354 15.027 5.93791C15.6109 6.52182 16.4028 6.84986 17.2286 6.84986Z" stroke="#34F4A4" stroke-width="1.2" stroke-linecap="round" stroke-linejoin="round"/>
</svg>
