<svg width="18" height="15" viewBox="0 0 18 15" fill="none" xmlns="http://www.w3.org/2000/svg">
<path d="M17.499 12.8632C17.499 13.2731 17.3362 13.6661 17.0464 13.9559C16.7566 14.2457 16.3636 14.4085 15.9537 14.4085H2.04646C1.63664 14.4085 1.2436 14.2457 0.953804 13.9559C0.664013 13.6661 0.50121 13.2731 0.50121 12.8632V4.36434C0.50121 3.95451 0.664013 3.56147 0.953804 3.27168C1.2436 2.98189 1.63664 2.81909 2.04646 2.81909H5.13697L6.68222 0.50121H11.318L12.8632 2.81909H15.9537C16.3636 2.81909 16.7566 2.98189 17.0464 3.27168C17.3362 3.56147 17.499 3.95451 17.499 4.36434V12.8632Z" stroke="white" stroke-linecap="round" stroke-linejoin="round"/>
<path d="M8.99979 11.3179C10.7066 11.3179 12.0903 9.93426 12.0903 8.22742C12.0903 6.52058 10.7066 5.13691 8.99979 5.13691C7.29295 5.13691 5.90929 6.52058 5.90929 8.22742C5.90929 9.93426 7.29295 11.3179 8.99979 11.3179Z" stroke="white" stroke-linecap="round" stroke-linejoin="round"/>
</svg>
