<svg width="21" height="21" viewBox="0 0 21 21" fill="none" xmlns="http://www.w3.org/2000/svg">
<path fill-rule="evenodd" clip-rule="evenodd" d="M2.33359 9.33971C2.33359 8.41983 2.51478 7.50896 2.8668 6.6591C3.21882 5.80924 3.73479 5.03703 4.38524 4.38658C5.0357 3.73613 5.8079 3.22016 6.65776 2.86813C7.50762 2.51611 8.41849 2.33493 9.33837 2.33493C10.2583 2.33493 11.1691 2.51611 12.019 2.86813C12.8688 3.22016 13.641 3.73613 14.2915 4.38658C14.942 5.03703 15.4579 5.80924 15.8099 6.6591C16.162 7.50896 16.3432 8.41983 16.3432 9.33971C16.3432 11.1975 15.6052 12.9792 14.2915 14.2928C12.9779 15.6065 11.1962 16.3445 9.33837 16.3445C7.48059 16.3445 5.6989 15.6065 4.38524 14.2928C3.07159 12.9792 2.33359 11.1975 2.33359 9.33971ZM9.33837 5.76917e-08C7.85203 0.000212859 6.3872 0.355164 5.06562 1.03535C3.74405 1.71554 2.60389 2.70133 1.73992 3.91078C0.875944 5.12023 0.313101 6.51841 0.0981676 7.98914C-0.116766 9.45986 0.0224163 10.9606 0.504148 12.3668C0.985879 13.7729 1.79625 15.0437 2.8679 16.0736C3.93956 17.1036 5.24155 17.8629 6.66567 18.2884C8.0898 18.714 9.59492 18.7935 11.056 18.5204C12.517 18.2473 13.8917 17.6294 15.0659 16.7181L19.0201 20.6723C19.2403 20.8849 19.5352 21.0026 19.8413 21C20.1474 20.9973 20.4403 20.8745 20.6567 20.6581C20.8732 20.4416 20.996 20.1488 20.9986 19.8427C21.0013 19.5366 20.8836 19.2417 20.6709 19.0215L16.7167 15.0673C17.7886 13.6867 18.4515 12.0331 18.6302 10.2944C18.8089 8.55577 18.4961 6.80187 17.7274 5.23216C16.9587 3.66245 15.765 2.33994 14.282 1.41499C12.799 0.490053 11.0862 -0.000194173 9.33837 5.76917e-08ZM9.33837 14.0096C10.5769 14.0096 11.7647 13.5176 12.6405 12.6418C13.5162 11.766 14.0082 10.5782 14.0082 9.33971C14.0082 8.10119 13.5162 6.91339 12.6405 6.03762C11.7647 5.16186 10.5769 4.66986 9.33837 4.66986C8.09985 4.66986 6.91206 5.16186 6.03629 6.03762C5.16052 6.91339 4.66852 8.10119 4.66852 9.33971C4.66852 10.5782 5.16052 11.766 6.03629 12.6418C6.91206 13.5176 8.09985 14.0096 9.33837 14.0096Z" fill="white"/>
</svg>
