<svg width="12" height="12" viewBox="0 0 12 12" fill="none" xmlns="http://www.w3.org/2000/svg">
<path d="M8.5649 1.38905C8.69736 1.26571 8.85461 1.16786 9.02767 1.10111C9.20074 1.03436 9.38623 1 9.57355 1C9.76087 1 9.94636 1.03436 10.1194 1.10111C10.2925 1.16786 10.4497 1.26571 10.5822 1.38905C10.7147 1.51239 10.8197 1.65882 10.8914 1.81998C10.9631 1.98114 11 2.15387 11 2.3283C11 2.50274 10.9631 2.67546 10.8914 2.83662C10.8197 2.99778 10.7147 3.14421 10.5822 3.26755L3.7738 9.60749L1 10.3119L1.75649 7.72899L8.5649 1.38905Z" stroke="white" stroke-width="2" stroke-linecap="round" stroke-linejoin="round"/>
</svg>
