<svg width="44" height="44" viewBox="0 0 44 44" fill="none" xmlns="http://www.w3.org/2000/svg">
<path fill-rule="evenodd" clip-rule="evenodd" d="M4.88943 19.5689C4.88943 17.6415 5.26905 15.733 6.00663 13.9524C6.7442 12.1717 7.82528 10.5538 9.18813 9.19093C10.551 7.82807 12.1689 6.747 13.9496 6.00942C15.7302 5.27185 17.6387 4.89223 19.5661 4.89223C21.4935 4.89223 23.402 5.27185 25.1826 6.00942C26.9633 6.747 28.5812 7.82807 29.9441 9.19093C31.307 10.5538 32.388 12.1717 33.1256 13.9524C33.8632 15.733 34.2428 17.6415 34.2428 19.5689C34.2428 23.4614 32.6965 27.1945 29.9441 29.9469C27.1917 32.6993 23.4586 34.2456 19.5661 34.2456C15.6736 34.2456 11.9405 32.6993 9.18813 29.9469C6.43572 27.1945 4.88943 23.4614 4.88943 19.5689ZM19.5661 1.20878e-07C16.4519 0.000445991 13.3827 0.744152 10.6137 2.16931C7.84467 3.59447 5.45577 5.65992 3.64554 8.194C1.83531 10.7281 0.656022 13.6576 0.205684 16.7391C-0.244653 19.8207 0.0469674 22.9651 1.05631 25.9113C2.06565 28.8574 3.76356 31.5201 6.00894 33.6781C8.25431 35.8361 10.9823 37.427 13.9662 38.3186C16.95 39.2103 20.1036 39.3769 23.1649 38.8046C26.2261 38.2323 29.1065 36.9377 31.5668 35.0284L39.8517 43.3133C40.3131 43.7589 40.931 44.0055 41.5723 43.9999C42.2137 43.9943 42.8272 43.7371 43.2807 43.2835C43.7343 42.83 43.9915 42.2165 43.9971 41.5751C44.0027 40.9338 43.7561 40.3159 43.3105 39.8545L35.0256 31.5695C37.2713 28.6769 38.6604 25.2122 39.0347 21.5693C39.409 17.9264 38.7537 14.2515 37.1431 10.9626C35.5325 7.67371 33.0314 4.90272 29.9242 2.96475C26.8169 1.02678 23.2282 -0.000406839 19.5661 1.20878e-07ZM19.5661 29.3534C22.1611 29.3534 24.6498 28.3225 26.4848 26.4876C28.3197 24.6526 29.3506 22.1639 29.3506 19.5689C29.3506 16.9739 28.3197 14.4852 26.4848 12.6503C24.6498 10.8153 22.1611 9.78446 19.5661 9.78446C16.9711 9.78446 14.4824 10.8153 12.6475 12.6503C10.8125 14.4852 9.78166 16.9739 9.78166 19.5689C9.78166 22.1639 10.8125 24.6526 12.6475 26.4876C14.4824 28.3225 16.9711 29.3534 19.5661 29.3534Z" fill="#34F4A4"/>
</svg>
