<svg width="65" height="36" viewBox="0 0 65 36" fill="none" xmlns="http://www.w3.org/2000/svg">
<path d="M19 18.6207C17.1817 18.6207 15.4042 18.0746 13.8923 17.0516C12.3805 16.0286 11.2021 14.5745 10.5063 12.8733C9.81043 11.172 9.62837 9.30002 9.9831 7.49399C10.3378 5.68796 11.2134 4.02902 12.4992 2.72694C13.7849 1.42487 15.4231 0.538141 17.2064 0.1789C18.9898 -0.180342 20.8383 0.00403404 22.5182 0.708712C24.1981 1.41339 25.634 2.60672 26.6442 4.1378C27.6544 5.66888 28.1935 7.46894 28.1935 9.31035C28.1935 11.7796 27.2249 14.1477 25.5008 15.8938C23.7767 17.6398 21.4383 18.6207 19 18.6207ZM19 3.72414C17.909 3.72414 16.8425 4.05177 15.9354 4.66559C15.0283 5.27941 14.3213 6.15185 13.9038 7.1726C13.4863 8.19334 13.377 9.31654 13.5899 10.4002C13.8027 11.4838 14.3281 12.4791 15.0995 13.2604C15.871 14.0416 16.8538 14.5737 17.9239 14.7892C18.9939 15.0048 20.103 14.8941 21.1109 14.4713C22.1189 14.0485 22.9804 13.3325 23.5865 12.4139C24.1926 11.4952 24.5161 10.4152 24.5161 9.31035C24.5161 7.82879 23.935 6.40792 22.9005 5.3603C21.866 4.31269 20.463 3.72414 19 3.72414ZM36.1613 36C35.6756 35.9936 35.2116 35.7953 34.8681 35.4475C34.5247 35.0997 34.3289 34.6298 34.3226 34.1379C34.3226 29.2966 31.7239 26.069 19 26.069C6.27613 26.069 3.67742 29.2966 3.67742 34.1379C3.67742 34.6318 3.4837 35.1054 3.13887 35.4546C2.79405 35.8038 2.32637 36 1.83871 36C1.35105 36 0.88337 35.8038 0.538545 35.4546C0.19372 35.1054 0 34.6318 0 34.1379C0 22.3448 13.3123 22.3448 19 22.3448C24.6877 22.3448 38 22.3448 38 34.1379C37.9937 34.6298 37.7979 35.0997 37.4544 35.4475C37.111 35.7953 36.647 35.9936 36.1613 36Z" fill="#34F4A4"/>
<path d="M46 18.6207C44.1817 18.6207 42.4042 18.0746 40.8923 17.0516C39.3805 16.0286 38.2021 14.5745 37.5063 12.8733C36.8104 11.172 36.6284 9.30002 36.9831 7.49399C37.3378 5.68796 38.2134 4.02902 39.4992 2.72694C40.7849 1.42487 42.4231 0.538141 44.2064 0.1789C45.9898 -0.180342 47.8383 0.00403404 49.5182 0.708712C51.1981 1.41339 52.634 2.60672 53.6442 4.1378C54.6544 5.66888 55.1935 7.46894 55.1935 9.31035C55.1935 11.7796 54.2249 14.1477 52.5008 15.8938C50.7767 17.6398 48.4383 18.6207 46 18.6207ZM46 3.72414C44.909 3.72414 43.8425 4.05177 42.9354 4.66559C42.0283 5.27941 41.3213 6.15185 40.9038 7.1726C40.4863 8.19334 40.377 9.31654 40.5899 10.4002C40.8027 11.4838 41.3281 12.4791 42.0995 13.2604C42.871 14.0416 43.8538 14.5737 44.9239 14.7892C45.9939 15.0048 47.103 14.8941 48.1109 14.4713C49.1189 14.0485 49.9804 13.3325 50.5865 12.4139C51.1926 11.4952 51.5161 10.4152 51.5161 9.31035C51.5161 7.82879 50.935 6.40792 49.9005 5.3603C48.866 4.31269 47.463 3.72414 46 3.72414ZM63.1613 36C62.6756 35.9936 62.2116 35.7953 61.8681 35.4475C61.5247 35.0997 61.3289 34.6298 61.3226 34.1379C61.3226 29.2966 58.7239 26.069 46 26.069C33.2761 26.069 30.6774 29.2966 30.6774 34.1379C30.6774 34.6318 30.4837 35.1054 30.1389 35.4546C29.794 35.8038 29.3264 36 28.8387 36C28.3511 36 27.8834 35.8038 27.5385 35.4546C27.1937 35.1054 27 34.6318 27 34.1379C27 22.3448 40.3123 22.3448 46 22.3448C51.6877 22.3448 65 22.3448 65 34.1379C64.9937 34.6298 64.7979 35.0997 64.4544 35.4475C64.111 35.7953 63.647 35.9936 63.1613 36Z" fill="#34F4A4"/>
</svg>
